<?xml version="1.0" standalone="no"?>
<!DOCTYPE svg PUBLIC "-//W3C//DTD SVG 1.1//EN" "http://www.w3.org/Graphics/SVG/1.1/DTD/svg11.dtd">
<svg width="800" height="600" version="1.1" xmlns="http://www.w3.org/2000/svg">
<rect width="800" height="600" x="0" y="0" style="fill:rgb(238,238,238);stroke:none"/>
<rect width="800" height="600" x="0" y="0" style="fill:rgb(255,255,255);stroke:none"/>
<text x="2" y="566" fill="rgb(0,0,0)" font-family="Arial" font-size="12">0</text>
<text x="2" y="487" fill="rgb(0,0,0)" font-family="Arial" font-size="12">1000000</text>
<text x="2" y="408" fill="rgb(0,0,0)" font-family="Arial" font-size="12">2000000</text>
<text x="2" y="329" fill="rgb(0,0,0)" font-family="Arial" font-size="12">3000000</text>
<text x="2" y="250" fill="rgb(0,0,0)" font-family="Arial" font-size="12">4000000</text>
<text x="2" y="171" fill="rgb(0,0,0)" font-family="Arial" font-size="12">5000000</text>
<text x="2" y="92" fill="rgb(0,0,0)" font-family="Arial" font-size="12">6000000</text>
<text x="286" y="30" fill="rgb(0,0,0)" font-family="Arial" font-size="12">Quality score distribution over all sequences</text>
<line x1="61" y1="560" x2="790" y2="560" stroke="rgb(0,0,0)" stroke-width="1"/>
<line x1="61" y1="560" x2="61" y2="40" stroke="rgb(0,0,0)" stroke-width="1"/>
<text x="281" y="595" fill="rgb(0,0,0)" font-family="Arial" font-size="12">Mean Sequence Quality (Phred Score)</text>
<text x="66" y="575" fill="rgb(0,0,0)" font-family="Arial" font-size="12">2</text>
<rect width="19" height="520" x="80" y="40" style="fill:rgb(230,230,230);stroke:none"/>
<text x="85" y="575" fill="rgb(0,0,0)" font-family="Arial" font-size="12">3</text>
<text x="104" y="575" fill="rgb(0,0,0)" font-family="Arial" font-size="12">4</text>
<rect width="19" height="520" x="118" y="40" style="fill:rgb(230,230,230);stroke:none"/>
<text x="123" y="575" fill="rgb(0,0,0)" font-family="Arial" font-size="12">5</text>
<text x="142" y="575" fill="rgb(0,0,0)" font-family="Arial" font-size="12">6</text>
<rect width="19" height="520" x="156" y="40" style="fill:rgb(230,230,230);stroke:none"/>
<text x="161" y="575" fill="rgb(0,0,0)" font-family="Arial" font-size="12">7</text>
<text x="180" y="575" fill="rgb(0,0,0)" font-family="Arial" font-size="12">8</text>
<rect width="19" height="520" x="194" y="40" style="fill:rgb(230,230,230);stroke:none"/>
<text x="199" y="575" fill="rgb(0,0,0)" font-family="Arial" font-size="12">9</text>
<text x="214" y="575" fill="rgb(0,0,0)" font-family="Arial" font-size="12">10</text>
<rect width="19" height="520" x="232" y="40" style="fill:rgb(230,230,230);stroke:none"/>
<text x="252" y="575" fill="rgb(0,0,0)" font-family="Arial" font-size="12">12</text>
<rect width="19" height="520" x="270" y="40" style="fill:rgb(230,230,230);stroke:none"/>
<text x="290" y="575" fill="rgb(0,0,0)" font-family="Arial" font-size="12">14</text>
<rect width="19" height="520" x="308" y="40" style="fill:rgb(230,230,230);stroke:none"/>
<text x="328" y="575" fill="rgb(0,0,0)" font-family="Arial" font-size="12">16</text>
<rect width="19" height="520" x="346" y="40" style="fill:rgb(230,230,230);stroke:none"/>
<text x="366" y="575" fill="rgb(0,0,0)" font-family="Arial" font-size="12">18</text>
<rect width="19" height="520" x="384" y="40" style="fill:rgb(230,230,230);stroke:none"/>
<text x="404" y="575" fill="rgb(0,0,0)" font-family="Arial" font-size="12">20</text>
<rect width="19" height="520" x="422" y="40" style="fill:rgb(230,230,230);stroke:none"/>
<text x="442" y="575" fill="rgb(0,0,0)" font-family="Arial" font-size="12">22</text>
<rect width="19" height="520" x="460" y="40" style="fill:rgb(230,230,230);stroke:none"/>
<text x="480" y="575" fill="rgb(0,0,0)" font-family="Arial" font-size="12">24</text>
<rect width="19" height="520" x="498" y="40" style="fill:rgb(230,230,230);stroke:none"/>
<text x="518" y="575" fill="rgb(0,0,0)" font-family="Arial" font-size="12">26</text>
<rect width="19" height="520" x="536" y="40" style="fill:rgb(230,230,230);stroke:none"/>
<text x="556" y="575" fill="rgb(0,0,0)" font-family="Arial" font-size="12">28</text>
<rect width="19" height="520" x="574" y="40" style="fill:rgb(230,230,230);stroke:none"/>
<text x="594" y="575" fill="rgb(0,0,0)" font-family="Arial" font-size="12">30</text>
<rect width="19" height="520" x="612" y="40" style="fill:rgb(230,230,230);stroke:none"/>
<text x="632" y="575" fill="rgb(0,0,0)" font-family="Arial" font-size="12">32</text>
<rect width="19" height="520" x="650" y="40" style="fill:rgb(230,230,230);stroke:none"/>
<text x="670" y="575" fill="rgb(0,0,0)" font-family="Arial" font-size="12">34</text>
<rect width="19" height="520" x="688" y="40" style="fill:rgb(230,230,230);stroke:none"/>
<text x="708" y="575" fill="rgb(0,0,0)" font-family="Arial" font-size="12">36</text>
<rect width="19" height="520" x="726" y="40" style="fill:rgb(230,230,230);stroke:none"/>
<text x="746" y="575" fill="rgb(0,0,0)" font-family="Arial" font-size="12">38</text>
<rect width="19" height="520" x="764" y="40" style="fill:rgb(230,230,230);stroke:none"/>
<line x1="61" y1="560" x2="790" y2="560" stroke="rgb(180,180,180)" stroke-width="1"/>
<line x1="61" y1="481" x2="790" y2="481" stroke="rgb(180,180,180)" stroke-width="1"/>
<line x1="61" y1="402" x2="790" y2="402" stroke="rgb(180,180,180)" stroke-width="1"/>
<line x1="61" y1="323" x2="790" y2="323" stroke="rgb(180,180,180)" stroke-width="1"/>
<line x1="61" y1="244" x2="790" y2="244" stroke="rgb(180,180,180)" stroke-width="1"/>
<line x1="61" y1="165" x2="790" y2="165" stroke="rgb(180,180,180)" stroke-width="1"/>
<line x1="61" y1="86" x2="790" y2="86" stroke="rgb(180,180,180)" stroke-width="1"/>
<line x1="70" y1="560" x2="89" y2="560" stroke="rgb(136,34,85)" stroke-width="1"/>
<line x1="89" y1="560" x2="108" y2="560" stroke="rgb(136,34,85)" stroke-width="1"/>
<line x1="108" y1="560" x2="127" y2="560" stroke="rgb(136,34,85)" stroke-width="1"/>
<line x1="127" y1="560" x2="146" y2="560" stroke="rgb(136,34,85)" stroke-width="1"/>
<line x1="146" y1="560" x2="165" y2="560" stroke="rgb(136,34,85)" stroke-width="1"/>
<line x1="165" y1="560" x2="184" y2="560" stroke="rgb(136,34,85)" stroke-width="1"/>
<line x1="184" y1="560" x2="203" y2="560" stroke="rgb(136,34,85)" stroke-width="1"/>
<line x1="203" y1="560" x2="222" y2="560" stroke="rgb(136,34,85)" stroke-width="1"/>
<line x1="222" y1="560" x2="241" y2="560" stroke="rgb(136,34,85)" stroke-width="1"/>
<line x1="241" y1="560" x2="260" y2="560" stroke="rgb(136,34,85)" stroke-width="1"/>
<line x1="260" y1="560" x2="279" y2="560" stroke="rgb(136,34,85)" stroke-width="1"/>
<line x1="279" y1="560" x2="298" y2="560" stroke="rgb(136,34,85)" stroke-width="1"/>
<line x1="298" y1="560" x2="317" y2="560" stroke="rgb(136,34,85)" stroke-width="1"/>
<line x1="317" y1="560" x2="336" y2="560" stroke="rgb(136,34,85)" stroke-width="1"/>
<line x1="336" y1="560" x2="355" y2="560" stroke="rgb(136,34,85)" stroke-width="1"/>
<line x1="355" y1="560" x2="374" y2="559" stroke="rgb(136,34,85)" stroke-width="1"/>
<line x1="374" y1="559" x2="393" y2="559" stroke="rgb(136,34,85)" stroke-width="1"/>
<line x1="393" y1="559" x2="412" y2="559" stroke="rgb(136,34,85)" stroke-width="1"/>
<line x1="412" y1="559" x2="431" y2="559" stroke="rgb(136,34,85)" stroke-width="1"/>
<line x1="431" y1="559" x2="450" y2="558" stroke="rgb(136,34,85)" stroke-width="1"/>
<line x1="450" y1="558" x2="469" y2="558" stroke="rgb(136,34,85)" stroke-width="1"/>
<line x1="469" y1="558" x2="488" y2="557" stroke="rgb(136,34,85)" stroke-width="1"/>
<line x1="488" y1="557" x2="507" y2="556" stroke="rgb(136,34,85)" stroke-width="1"/>
<line x1="507" y1="556" x2="526" y2="554" stroke="rgb(136,34,85)" stroke-width="1"/>
<line x1="526" y1="554" x2="545" y2="551" stroke="rgb(136,34,85)" stroke-width="1"/>
<line x1="545" y1="551" x2="564" y2="548" stroke="rgb(136,34,85)" stroke-width="1"/>
<line x1="564" y1="548" x2="583" y2="544" stroke="rgb(136,34,85)" stroke-width="1"/>
<line x1="583" y1="544" x2="602" y2="538" stroke="rgb(136,34,85)" stroke-width="1"/>
<line x1="602" y1="538" x2="621" y2="531" stroke="rgb(136,34,85)" stroke-width="1"/>
<line x1="621" y1="531" x2="640" y2="523" stroke="rgb(136,34,85)" stroke-width="1"/>
<line x1="640" y1="523" x2="659" y2="511" stroke="rgb(136,34,85)" stroke-width="1"/>
<line x1="659" y1="511" x2="678" y2="495" stroke="rgb(136,34,85)" stroke-width="1"/>
<line x1="678" y1="495" x2="697" y2="473" stroke="rgb(136,34,85)" stroke-width="1"/>
<line x1="697" y1="473" x2="716" y2="440" stroke="rgb(136,34,85)" stroke-width="1"/>
<line x1="716" y1="440" x2="735" y2="388" stroke="rgb(136,34,85)" stroke-width="1"/>
<line x1="735" y1="388" x2="754" y2="282" stroke="rgb(136,34,85)" stroke-width="1"/>
<line x1="754" y1="282" x2="773" y2="40" stroke="rgb(136,34,85)" stroke-width="1"/>
<rect width="183" height="23" x="607" y="40" style="fill:rgb(255,255,255);stroke:none"/>
<rect width="183" height="23" x="607" y="40" rx="0" ry="0" style="fill:none;stroke-width:1;stroke:rgb(192,192,192)"/>
<text x="610" y="55" fill="rgb(136,34,85)" font-family="Arial" font-size="12" font-weight="bold">Average Quality per read</text>
</svg>
